<mxfile host="app.diagrams.net" modified="2022-03-24T06:03:21.148Z" agent="5.0 (Windows NT 10.0; Win64; x64) AppleWebKit/537.36 (KHTML, like Gecko) Chrome/98.0.4758.109 Safari/537.36 OPR/84.0.4316.43" etag="s_IJ0Nhp1FSYhPNPh4E0" version="17.1.3" type="github">
  <diagram id="aaBFC2aLXMAM-OdhvOlt" name="Page-1">
    <mxGraphModel dx="997" dy="588" grid="1" gridSize="10" guides="1" tooltips="1" connect="1" arrows="1" fold="1" page="1" pageScale="1" pageWidth="850" pageHeight="1100" math="0" shadow="0">
      <root>
        <mxCell id="0" />
        <mxCell id="1" parent="0" />
        <mxCell id="tPt55b8hwKu2Nv7xcod_-1" value="Hệ thống" style="rounded=0;whiteSpace=wrap;html=1;" vertex="1" parent="1">
          <mxGeometry x="385" y="400" width="120" height="60" as="geometry" />
        </mxCell>
        <mxCell id="tPt55b8hwKu2Nv7xcod_-2" value="Nhân viên" style="rounded=0;whiteSpace=wrap;html=1;" vertex="1" parent="1">
          <mxGeometry x="150" y="250" width="120" height="60" as="geometry" />
        </mxCell>
        <mxCell id="tPt55b8hwKu2Nv7xcod_-3" value="Giải quyết sự cố" style="rounded=0;whiteSpace=wrap;html=1;" vertex="1" parent="1">
          <mxGeometry x="150" y="530" width="120" height="60" as="geometry" />
        </mxCell>
        <mxCell id="tPt55b8hwKu2Nv7xcod_-4" value="Thu chi ngân sách" style="rounded=0;whiteSpace=wrap;html=1;" vertex="1" parent="1">
          <mxGeometry x="620" y="380" width="120" height="60" as="geometry" />
        </mxCell>
        <mxCell id="tPt55b8hwKu2Nv7xcod_-8" value="" style="endArrow=none;html=1;rounded=0;entryX=0;entryY=0.5;entryDx=0;entryDy=0;startArrow=none;exitX=1;exitY=1;exitDx=0;exitDy=0;" edge="1" parent="1" source="tPt55b8hwKu2Nv7xcod_-9" target="tPt55b8hwKu2Nv7xcod_-1">
          <mxGeometry width="50" height="50" relative="1" as="geometry">
            <mxPoint x="330" y="400" as="sourcePoint" />
            <mxPoint x="450" y="280" as="targetPoint" />
          </mxGeometry>
        </mxCell>
        <mxCell id="tPt55b8hwKu2Nv7xcod_-9" value="quản lý" style="rhombus;whiteSpace=wrap;html=1;" vertex="1" parent="1">
          <mxGeometry x="260" y="350" width="80" height="50" as="geometry" />
        </mxCell>
        <mxCell id="tPt55b8hwKu2Nv7xcod_-10" value="" style="endArrow=none;html=1;rounded=0;exitX=0.5;exitY=1;exitDx=0;exitDy=0;" edge="1" parent="1" source="tPt55b8hwKu2Nv7xcod_-2" target="tPt55b8hwKu2Nv7xcod_-9">
          <mxGeometry width="50" height="50" relative="1" as="geometry">
            <mxPoint x="240" y="310" as="sourcePoint" />
            <mxPoint x="350" y="385" as="targetPoint" />
          </mxGeometry>
        </mxCell>
        <mxCell id="tPt55b8hwKu2Nv7xcod_-11" value="Họ tên" style="ellipse;whiteSpace=wrap;html=1;" vertex="1" parent="1">
          <mxGeometry x="30" y="280" width="80" height="50" as="geometry" />
        </mxCell>
        <mxCell id="tPt55b8hwKu2Nv7xcod_-12" value="Năm sinh" style="ellipse;whiteSpace=wrap;html=1;" vertex="1" parent="1">
          <mxGeometry y="170" width="80" height="50" as="geometry" />
        </mxCell>
        <mxCell id="tPt55b8hwKu2Nv7xcod_-13" value="&lt;u&gt;&lt;b&gt;Mã số&lt;/b&gt;&lt;/u&gt;" style="ellipse;whiteSpace=wrap;html=1;fillColor=#dae8fc;strokeColor=#6c8ebf;" vertex="1" parent="1">
          <mxGeometry x="20" y="80" width="80" height="50" as="geometry" />
        </mxCell>
        <mxCell id="tPt55b8hwKu2Nv7xcod_-15" value="Giới tính" style="ellipse;whiteSpace=wrap;html=1;" vertex="1" parent="1">
          <mxGeometry x="120" y="60" width="80" height="50" as="geometry" />
        </mxCell>
        <mxCell id="tPt55b8hwKu2Nv7xcod_-16" value="Địa chỉ" style="ellipse;whiteSpace=wrap;html=1;" vertex="1" parent="1">
          <mxGeometry x="230" y="50" width="80" height="50" as="geometry" />
        </mxCell>
        <mxCell id="tPt55b8hwKu2Nv7xcod_-17" value="Vị trí làm việc" style="ellipse;whiteSpace=wrap;html=1;" vertex="1" parent="1">
          <mxGeometry x="310" y="100" width="80" height="50" as="geometry" />
        </mxCell>
        <mxCell id="tPt55b8hwKu2Nv7xcod_-18" value="Lương" style="ellipse;whiteSpace=wrap;html=1;" vertex="1" parent="1">
          <mxGeometry x="320" y="180" width="80" height="50" as="geometry" />
        </mxCell>
        <mxCell id="tPt55b8hwKu2Nv7xcod_-20" value="" style="endArrow=none;html=1;rounded=0;exitX=1;exitY=0.5;exitDx=0;exitDy=0;entryX=0;entryY=0.5;entryDx=0;entryDy=0;" edge="1" parent="1" source="tPt55b8hwKu2Nv7xcod_-11" target="tPt55b8hwKu2Nv7xcod_-2">
          <mxGeometry width="50" height="50" relative="1" as="geometry">
            <mxPoint x="400" y="230" as="sourcePoint" />
            <mxPoint x="450" y="180" as="targetPoint" />
          </mxGeometry>
        </mxCell>
        <mxCell id="tPt55b8hwKu2Nv7xcod_-21" value="" style="endArrow=none;html=1;rounded=0;entryX=1;entryY=1;entryDx=0;entryDy=0;exitX=0;exitY=0.25;exitDx=0;exitDy=0;" edge="1" parent="1" source="tPt55b8hwKu2Nv7xcod_-2" target="tPt55b8hwKu2Nv7xcod_-12">
          <mxGeometry width="50" height="50" relative="1" as="geometry">
            <mxPoint x="400" y="230" as="sourcePoint" />
            <mxPoint x="450" y="180" as="targetPoint" />
          </mxGeometry>
        </mxCell>
        <mxCell id="tPt55b8hwKu2Nv7xcod_-22" value="" style="endArrow=none;html=1;rounded=0;entryX=1;entryY=1;entryDx=0;entryDy=0;exitX=0.25;exitY=0;exitDx=0;exitDy=0;" edge="1" parent="1" source="tPt55b8hwKu2Nv7xcod_-2" target="tPt55b8hwKu2Nv7xcod_-13">
          <mxGeometry width="50" height="50" relative="1" as="geometry">
            <mxPoint x="400" y="230" as="sourcePoint" />
            <mxPoint x="450" y="180" as="targetPoint" />
          </mxGeometry>
        </mxCell>
        <mxCell id="tPt55b8hwKu2Nv7xcod_-23" value="" style="endArrow=none;html=1;rounded=0;entryX=0.5;entryY=1;entryDx=0;entryDy=0;exitX=0.5;exitY=0;exitDx=0;exitDy=0;" edge="1" parent="1" source="tPt55b8hwKu2Nv7xcod_-2" target="tPt55b8hwKu2Nv7xcod_-15">
          <mxGeometry width="50" height="50" relative="1" as="geometry">
            <mxPoint x="400" y="230" as="sourcePoint" />
            <mxPoint x="450" y="180" as="targetPoint" />
          </mxGeometry>
        </mxCell>
        <mxCell id="tPt55b8hwKu2Nv7xcod_-24" value="" style="endArrow=none;html=1;rounded=0;entryX=0.5;entryY=1;entryDx=0;entryDy=0;exitX=0.75;exitY=0;exitDx=0;exitDy=0;" edge="1" parent="1" source="tPt55b8hwKu2Nv7xcod_-2" target="tPt55b8hwKu2Nv7xcod_-16">
          <mxGeometry width="50" height="50" relative="1" as="geometry">
            <mxPoint x="400" y="230" as="sourcePoint" />
            <mxPoint x="450" y="180" as="targetPoint" />
          </mxGeometry>
        </mxCell>
        <mxCell id="tPt55b8hwKu2Nv7xcod_-25" value="" style="endArrow=none;html=1;rounded=0;entryX=0;entryY=1;entryDx=0;entryDy=0;exitX=1;exitY=0;exitDx=0;exitDy=0;" edge="1" parent="1" source="tPt55b8hwKu2Nv7xcod_-2" target="tPt55b8hwKu2Nv7xcod_-17">
          <mxGeometry width="50" height="50" relative="1" as="geometry">
            <mxPoint x="400" y="230" as="sourcePoint" />
            <mxPoint x="450" y="180" as="targetPoint" />
          </mxGeometry>
        </mxCell>
        <mxCell id="tPt55b8hwKu2Nv7xcod_-26" value="" style="endArrow=none;html=1;rounded=0;entryX=0;entryY=1;entryDx=0;entryDy=0;exitX=1;exitY=0.5;exitDx=0;exitDy=0;" edge="1" parent="1" source="tPt55b8hwKu2Nv7xcod_-2" target="tPt55b8hwKu2Nv7xcod_-18">
          <mxGeometry width="50" height="50" relative="1" as="geometry">
            <mxPoint x="400" y="230" as="sourcePoint" />
            <mxPoint x="450" y="180" as="targetPoint" />
          </mxGeometry>
        </mxCell>
        <mxCell id="tPt55b8hwKu2Nv7xcod_-27" value="làm việc cho" style="rhombus;whiteSpace=wrap;html=1;" vertex="1" parent="1">
          <mxGeometry x="400" y="290" width="90" height="60" as="geometry" />
        </mxCell>
        <mxCell id="tPt55b8hwKu2Nv7xcod_-28" value="" style="endArrow=none;html=1;rounded=0;entryX=1;entryY=1;entryDx=0;entryDy=0;exitX=0;exitY=0.5;exitDx=0;exitDy=0;" edge="1" parent="1" source="tPt55b8hwKu2Nv7xcod_-27" target="tPt55b8hwKu2Nv7xcod_-2">
          <mxGeometry width="50" height="50" relative="1" as="geometry">
            <mxPoint x="400" y="430" as="sourcePoint" />
            <mxPoint x="450" y="380" as="targetPoint" />
          </mxGeometry>
        </mxCell>
        <mxCell id="tPt55b8hwKu2Nv7xcod_-32" value="" style="endArrow=none;html=1;rounded=0;entryX=0.5;entryY=1;entryDx=0;entryDy=0;exitX=0.5;exitY=0;exitDx=0;exitDy=0;" edge="1" parent="1" source="tPt55b8hwKu2Nv7xcod_-1" target="tPt55b8hwKu2Nv7xcod_-27">
          <mxGeometry width="50" height="50" relative="1" as="geometry">
            <mxPoint x="400" y="430" as="sourcePoint" />
            <mxPoint x="450" y="380" as="targetPoint" />
          </mxGeometry>
        </mxCell>
        <mxCell id="tPt55b8hwKu2Nv7xcod_-34" value="Số giờ" style="ellipse;whiteSpace=wrap;html=1;" vertex="1" parent="1">
          <mxGeometry x="520" y="270" width="80" height="50" as="geometry" />
        </mxCell>
        <mxCell id="tPt55b8hwKu2Nv7xcod_-35" value="" style="endArrow=none;html=1;rounded=0;entryX=0;entryY=1;entryDx=0;entryDy=0;exitX=1;exitY=0.5;exitDx=0;exitDy=0;" edge="1" parent="1" source="tPt55b8hwKu2Nv7xcod_-27" target="tPt55b8hwKu2Nv7xcod_-34">
          <mxGeometry width="50" height="50" relative="1" as="geometry">
            <mxPoint x="530" y="420" as="sourcePoint" />
            <mxPoint x="450" y="480" as="targetPoint" />
          </mxGeometry>
        </mxCell>
        <mxCell id="tPt55b8hwKu2Nv7xcod_-39" value="" style="endArrow=none;html=1;rounded=0;entryX=0;entryY=1;entryDx=0;entryDy=0;exitX=1;exitY=0;exitDx=0;exitDy=0;startArrow=none;" edge="1" parent="1" source="tPt55b8hwKu2Nv7xcod_-41" target="tPt55b8hwKu2Nv7xcod_-1">
          <mxGeometry width="50" height="50" relative="1" as="geometry">
            <mxPoint x="400" y="630" as="sourcePoint" />
            <mxPoint x="450" y="580" as="targetPoint" />
          </mxGeometry>
        </mxCell>
        <mxCell id="tPt55b8hwKu2Nv7xcod_-40" value="Xác định&lt;br&gt;sự cố" style="ellipse;whiteSpace=wrap;html=1;" vertex="1" parent="1">
          <mxGeometry x="20" y="500" width="80" height="50" as="geometry" />
        </mxCell>
        <mxCell id="tPt55b8hwKu2Nv7xcod_-41" value="quản lý" style="rhombus;whiteSpace=wrap;html=1;" vertex="1" parent="1">
          <mxGeometry x="290" y="470" width="80" height="50" as="geometry" />
        </mxCell>
        <mxCell id="tPt55b8hwKu2Nv7xcod_-42" value="" style="endArrow=none;html=1;rounded=0;entryX=0;entryY=1;entryDx=0;entryDy=0;exitX=1;exitY=0;exitDx=0;exitDy=0;" edge="1" parent="1" source="tPt55b8hwKu2Nv7xcod_-3" target="tPt55b8hwKu2Nv7xcod_-41">
          <mxGeometry width="50" height="50" relative="1" as="geometry">
            <mxPoint x="270" y="530" as="sourcePoint" />
            <mxPoint x="385" y="460" as="targetPoint" />
          </mxGeometry>
        </mxCell>
        <mxCell id="tPt55b8hwKu2Nv7xcod_-43" value="&lt;b&gt;&lt;u&gt;Lập biên&lt;br&gt;bản&lt;/u&gt;&lt;/b&gt;" style="ellipse;whiteSpace=wrap;html=1;fillColor=#dae8fc;strokeColor=#6c8ebf;" vertex="1" parent="1">
          <mxGeometry x="20" y="590" width="80" height="50" as="geometry" />
        </mxCell>
        <mxCell id="tPt55b8hwKu2Nv7xcod_-44" value="Giải quyết&lt;br&gt;sự cố" style="ellipse;whiteSpace=wrap;html=1;" vertex="1" parent="1">
          <mxGeometry x="130" y="640" width="80" height="50" as="geometry" />
        </mxCell>
        <mxCell id="tPt55b8hwKu2Nv7xcod_-46" style="edgeStyle=orthogonalEdgeStyle;rounded=0;orthogonalLoop=1;jettySize=auto;html=1;exitX=0.5;exitY=1;exitDx=0;exitDy=0;" edge="1" parent="1" source="tPt55b8hwKu2Nv7xcod_-43" target="tPt55b8hwKu2Nv7xcod_-43">
          <mxGeometry relative="1" as="geometry" />
        </mxCell>
        <mxCell id="tPt55b8hwKu2Nv7xcod_-47" value="" style="endArrow=none;html=1;rounded=0;exitX=1;exitY=0.5;exitDx=0;exitDy=0;entryX=0;entryY=0.25;entryDx=0;entryDy=0;" edge="1" parent="1" source="tPt55b8hwKu2Nv7xcod_-40" target="tPt55b8hwKu2Nv7xcod_-3">
          <mxGeometry width="50" height="50" relative="1" as="geometry">
            <mxPoint x="400" y="620" as="sourcePoint" />
            <mxPoint x="450" y="570" as="targetPoint" />
          </mxGeometry>
        </mxCell>
        <mxCell id="tPt55b8hwKu2Nv7xcod_-48" value="" style="endArrow=none;html=1;rounded=0;exitX=1;exitY=0;exitDx=0;exitDy=0;" edge="1" parent="1" source="tPt55b8hwKu2Nv7xcod_-43">
          <mxGeometry width="50" height="50" relative="1" as="geometry">
            <mxPoint x="400" y="620" as="sourcePoint" />
            <mxPoint x="150" y="580" as="targetPoint" />
          </mxGeometry>
        </mxCell>
        <mxCell id="tPt55b8hwKu2Nv7xcod_-49" value="" style="endArrow=none;html=1;rounded=0;exitX=0.5;exitY=0;exitDx=0;exitDy=0;entryX=0.25;entryY=1;entryDx=0;entryDy=0;" edge="1" parent="1" source="tPt55b8hwKu2Nv7xcod_-44" target="tPt55b8hwKu2Nv7xcod_-3">
          <mxGeometry width="50" height="50" relative="1" as="geometry">
            <mxPoint x="400" y="620" as="sourcePoint" />
            <mxPoint x="450" y="570" as="targetPoint" />
          </mxGeometry>
        </mxCell>
        <mxCell id="tPt55b8hwKu2Nv7xcod_-50" value="Nhà cung cấp&lt;br&gt;hàng hoá" style="rounded=0;whiteSpace=wrap;html=1;" vertex="1" parent="1">
          <mxGeometry x="600" y="520" width="120" height="60" as="geometry" />
        </mxCell>
        <mxCell id="tPt55b8hwKu2Nv7xcod_-52" value="đặt" style="rhombus;whiteSpace=wrap;html=1;" vertex="1" parent="1">
          <mxGeometry x="520" y="470" width="80" height="50" as="geometry" />
        </mxCell>
        <mxCell id="tPt55b8hwKu2Nv7xcod_-53" value="" style="endArrow=none;html=1;rounded=0;entryX=1;entryY=1;entryDx=0;entryDy=0;exitX=0;exitY=0;exitDx=0;exitDy=0;" edge="1" parent="1" source="tPt55b8hwKu2Nv7xcod_-52" target="tPt55b8hwKu2Nv7xcod_-1">
          <mxGeometry width="50" height="50" relative="1" as="geometry">
            <mxPoint x="400" y="510" as="sourcePoint" />
            <mxPoint x="450" y="460" as="targetPoint" />
          </mxGeometry>
        </mxCell>
        <mxCell id="tPt55b8hwKu2Nv7xcod_-54" value="" style="endArrow=none;html=1;rounded=0;entryX=1;entryY=1;entryDx=0;entryDy=0;exitX=0;exitY=0;exitDx=0;exitDy=0;" edge="1" parent="1" source="tPt55b8hwKu2Nv7xcod_-50" target="tPt55b8hwKu2Nv7xcod_-52">
          <mxGeometry width="50" height="50" relative="1" as="geometry">
            <mxPoint x="400" y="510" as="sourcePoint" />
            <mxPoint x="450" y="460" as="targetPoint" />
          </mxGeometry>
        </mxCell>
        <mxCell id="tPt55b8hwKu2Nv7xcod_-55" value="Hàng hoá" style="rounded=0;whiteSpace=wrap;html=1;" vertex="1" parent="1">
          <mxGeometry x="385" y="650" width="120" height="60" as="geometry" />
        </mxCell>
        <mxCell id="tPt55b8hwKu2Nv7xcod_-56" value="cung cấp" style="rhombus;whiteSpace=wrap;html=1;" vertex="1" parent="1">
          <mxGeometry x="510" y="590" width="80" height="50" as="geometry" />
        </mxCell>
        <mxCell id="tPt55b8hwKu2Nv7xcod_-58" value="" style="endArrow=none;html=1;rounded=0;exitX=1;exitY=0;exitDx=0;exitDy=0;entryX=0;entryY=1;entryDx=0;entryDy=0;" edge="1" parent="1" source="tPt55b8hwKu2Nv7xcod_-55" target="tPt55b8hwKu2Nv7xcod_-56">
          <mxGeometry width="50" height="50" relative="1" as="geometry">
            <mxPoint x="400" y="610" as="sourcePoint" />
            <mxPoint x="450" y="560" as="targetPoint" />
          </mxGeometry>
        </mxCell>
        <mxCell id="tPt55b8hwKu2Nv7xcod_-59" value="" style="endArrow=none;html=1;rounded=0;entryX=0;entryY=1;entryDx=0;entryDy=0;exitX=1;exitY=0;exitDx=0;exitDy=0;" edge="1" parent="1" source="tPt55b8hwKu2Nv7xcod_-56" target="tPt55b8hwKu2Nv7xcod_-50">
          <mxGeometry width="50" height="50" relative="1" as="geometry">
            <mxPoint x="400" y="610" as="sourcePoint" />
            <mxPoint x="450" y="560" as="targetPoint" />
          </mxGeometry>
        </mxCell>
        <mxCell id="tPt55b8hwKu2Nv7xcod_-61" value="số lượng" style="ellipse;whiteSpace=wrap;html=1;" vertex="1" parent="1">
          <mxGeometry x="430" y="540" width="80" height="50" as="geometry" />
        </mxCell>
        <mxCell id="tPt55b8hwKu2Nv7xcod_-63" value="Hàng hoá" style="ellipse;whiteSpace=wrap;html=1;" vertex="1" parent="1">
          <mxGeometry x="600" y="640" width="80" height="50" as="geometry" />
        </mxCell>
        <mxCell id="tPt55b8hwKu2Nv7xcod_-65" value="" style="endArrow=none;html=1;rounded=0;entryX=1;entryY=1;entryDx=0;entryDy=0;exitX=0;exitY=0;exitDx=0;exitDy=0;" edge="1" parent="1" source="tPt55b8hwKu2Nv7xcod_-56" target="tPt55b8hwKu2Nv7xcod_-61">
          <mxGeometry width="50" height="50" relative="1" as="geometry">
            <mxPoint x="400" y="620" as="sourcePoint" />
            <mxPoint x="450" y="570" as="targetPoint" />
          </mxGeometry>
        </mxCell>
        <mxCell id="tPt55b8hwKu2Nv7xcod_-68" value="" style="endArrow=none;html=1;rounded=0;exitX=1;exitY=1;exitDx=0;exitDy=0;entryX=0.055;entryY=0.256;entryDx=0;entryDy=0;entryPerimeter=0;" edge="1" parent="1" source="tPt55b8hwKu2Nv7xcod_-56" target="tPt55b8hwKu2Nv7xcod_-63">
          <mxGeometry width="50" height="50" relative="1" as="geometry">
            <mxPoint x="400" y="620" as="sourcePoint" />
            <mxPoint x="450" y="570" as="targetPoint" />
          </mxGeometry>
        </mxCell>
      </root>
    </mxGraphModel>
  </diagram>
</mxfile>
